<svg width="32" height="32" viewBox="0 0 32 32" fill="none" xmlns="http://www.w3.org/2000/svg">
<path d="M32 16C32 24.8366 24.8366 32 16 32C7.16344 32 0 24.8366 0 16C0 7.16344 7.16344 0 16 0C24.8366 0 32 7.16344 32 16ZM3.28829 16C3.28829 23.0205 8.97952 28.7117 16 28.7117C23.0205 28.7117 28.7117 23.0205 28.7117 16C28.7117 8.97952 23.0205 3.28829 16 3.28829C8.97952 3.28829 3.28829 8.97952 3.28829 16Z" fill="#0297D4"/>
<path d="M15.7314 24V11.5605H15.5381L11.7354 14.2031V11.2812L15.7422 8.49902H18.9756V24H15.7314Z" fill="#0297D4"/>
</svg>
