<svg width="32" height="32" viewBox="0 0 32 32" fill="none" xmlns="http://www.w3.org/2000/svg">
<path d="M32 16C32 24.8366 24.8366 32 16 32C7.16344 32 0 24.8366 0 16C0 7.16344 7.16344 0 16 0C24.8366 0 32 7.16344 32 16ZM3.28829 16C3.28829 23.0205 8.97952 28.7117 16 28.7117C23.0205 28.7117 28.7117 23.0205 28.7117 16C28.7117 8.97952 23.0205 3.28829 16 3.28829C8.97952 3.28829 3.28829 8.97952 3.28829 16Z" fill="#0297D4"/>
<path d="M10.9893 24V21.8193L15.9844 16.8887C18.165 14.7725 18.7559 13.9883 18.7559 12.9033V12.8711C18.7559 11.5498 17.8535 10.626 16.3711 10.626C14.8564 10.626 13.8145 11.6357 13.8145 13.1074V13.1611H10.8174L10.8066 13.1182C10.8066 10.1426 13.127 8.10156 16.5215 8.10156C19.7119 8.10156 21.9463 9.92773 21.9463 12.6025V12.6348C21.9463 14.3965 21.0332 15.8574 18.208 18.4678L15.3398 21.1426V21.3896H22.1719V24H10.9893Z" fill="#0297D4"/>
</svg>
