<svg width="32" height="32" viewBox="0 0 32 32" fill="none" xmlns="http://www.w3.org/2000/svg">
<path d="M32 16C32 24.8366 24.8366 32 16 32C7.16344 32 0 24.8366 0 16C0 7.16344 7.16344 0 16 0C24.8366 0 32 7.16344 32 16ZM3.28829 16C3.28829 23.0205 8.97952 28.7117 16 28.7117C23.0205 28.7117 28.7117 23.0205 28.7117 16C28.7117 8.97952 23.0205 3.28829 16 3.28829C8.97952 3.28829 3.28829 8.97952 3.28829 16Z" fill="#0297D4"/>
<path d="M16.5 24.3438C12.998 24.3438 10.6885 22.4639 10.4736 19.6924L10.4629 19.5527H13.5674L13.5781 19.6709C13.7178 20.874 14.8242 21.7334 16.5 21.7334C18.1543 21.7334 19.2393 20.8096 19.2393 19.499V19.4775C19.2393 17.9951 18.1328 17.1787 16.2529 17.1787H14.4805V14.8691H16.21C17.8428 14.8691 18.8955 14.0098 18.8955 12.7529V12.7314C18.8955 11.4424 18.0039 10.6475 16.4785 10.6475C14.9531 10.6475 13.9326 11.4746 13.8037 12.7637L13.793 12.8604H10.8066L10.8174 12.7314C11.043 9.95996 13.2236 8.15527 16.4785 8.15527C19.8086 8.15527 21.957 9.83105 21.957 12.3018V12.3232C21.957 14.2568 20.5391 15.5137 18.7236 15.8896V15.9541C21.0332 16.1689 22.5371 17.501 22.5371 19.6064V19.6279C22.5371 22.4424 20.1201 24.3438 16.5 24.3438Z" fill="#0297D4"/>
</svg>
