<svg width="32" height="32" viewBox="0 0 32 32" fill="none" xmlns="http://www.w3.org/2000/svg">
<path d="M32 16C32 24.8366 24.8366 32 16 32C7.16344 32 0 24.8366 0 16C0 7.16344 7.16344 0 16 0C24.8366 0 32 7.16344 32 16ZM3.28829 16C3.28829 23.0205 8.97952 28.7117 16 28.7117C23.0205 28.7117 28.7117 23.0205 28.7117 16C28.7117 8.97952 23.0205 3.28829 16 3.28829C8.97952 3.28829 3.28829 8.97952 3.28829 16Z" fill="#0297D4"/>
<path d="M17.1924 24V21.1533H9.59766V18.6074C11.5635 15.1162 13.6689 11.6787 15.7314 8.49902H20.2861V18.5537H22.3057V21.1533H20.2861V24H17.1924ZM12.5195 18.6396H17.2568V10.959H17.085C15.5811 13.2686 13.916 15.9648 12.5195 18.4678V18.6396Z" fill="#0297D4"/>
</svg>
