<svg width="32" height="32" viewBox="0 0 32 32" fill="none" xmlns="http://www.w3.org/2000/svg">
<path d="M32 16C32 24.8366 24.8366 32 16 32C7.16344 32 0 24.8366 0 16C0 7.16344 7.16344 0 16 0C24.8366 0 32 7.16344 32 16ZM3.28829 16C3.28829 23.0205 8.97952 28.7117 16 28.7117C23.0205 28.7117 28.7117 23.0205 28.7117 16C28.7117 8.97952 23.0205 3.28829 16 3.28829C8.97952 3.28829 3.28829 8.97952 3.28829 16Z" fill="#0297D4"/>
<path d="M16.6396 24.3975C13.3203 24.3975 11.1289 22.4209 10.9463 19.832L10.9355 19.6816H13.8789L13.9004 19.7568C14.126 20.8955 15.1895 21.8086 16.6504 21.8086C18.3154 21.8086 19.4756 20.6377 19.4756 18.9727V18.9512C19.4756 17.2969 18.3047 16.1475 16.6611 16.1475C15.877 16.1475 15.2109 16.373 14.6953 16.8135C14.4053 17.0498 14.1475 17.3398 13.9756 17.6729H11.1934L11.9131 8.49902H21.6025V11.0771H14.4375L14.0508 15.4922H14.2441C14.8672 14.4502 16.0703 13.8057 17.5527 13.8057C20.4424 13.8057 22.5264 15.9326 22.5264 18.8867V18.9082C22.5264 22.1738 20.1201 24.3975 16.6396 24.3975Z" fill="#0297D4"/>
</svg>
