<svg width="32" height="32" viewBox="0 0 32 32" fill="none" xmlns="http://www.w3.org/2000/svg">
<path d="M32 16C32 24.8366 24.8366 32 16 32C7.16344 32 0 24.8366 0 16C0 7.16344 7.16344 0 16 0C24.8366 0 32 7.16344 32 16ZM3.28829 16C3.28829 23.0205 8.97952 28.7117 16 28.7117C23.0205 28.7117 28.7117 23.0205 28.7117 16C28.7117 8.97952 23.0205 3.28829 16 3.28829C8.97952 3.28829 3.28829 8.97952 3.28829 16Z" fill="#0297D4"/>
<path d="M16.2256 24.3975C12.627 24.3975 9.82324 21.8516 9.82324 16.3945V16.373C9.82324 11.1846 12.2725 8.10156 16.2363 8.10156C19.2334 8.10156 21.4678 9.87402 21.9404 12.3018L21.9619 12.4092H18.793L18.75 12.3125C18.3848 11.3457 17.5039 10.6904 16.2471 10.6904C14.002 10.6904 13.0244 12.8926 12.9062 15.707C12.8955 15.8252 12.8955 15.9434 12.8955 16.0615H13.1104C13.6689 14.8584 14.9688 13.7949 17.1064 13.7949C20.125 13.7949 22.166 15.9434 22.166 18.876V18.8975C22.166 22.0664 19.7168 24.3975 16.2256 24.3975ZM13.3789 18.9404C13.3789 20.5732 14.625 21.8301 16.2041 21.8301C17.7725 21.8301 19.0293 20.5947 19.0293 19.0049V18.9834C19.0293 17.3613 17.8477 16.1797 16.2256 16.1797C14.625 16.1797 13.3789 17.3291 13.3789 18.9297V18.9404Z" fill="#0297D4"/>
</svg>
