<svg width="97" height="96" viewBox="0 0 97 96" fill="none" xmlns="http://www.w3.org/2000/svg">
<circle cx="48.6844" cy="47.8389" r="44.8389" fill="white" stroke="#FFCD00" stroke-width="6"/>
<path d="M21.4258 65.7786V62.7212L33.4582 49.7025C37.995 44.7958 39.3264 42.9466 39.3264 39.8399V39.7906C39.3264 36.0428 36.7868 33.2319 32.5952 33.2319C28.3296 33.2319 25.4941 36.0181 25.4941 40.2097L25.4694 40.259L21.2285 40.2344L21.1792 40.2097C21.2039 33.8976 26.0859 29.3608 32.8911 29.3608C39.1045 29.3608 43.8632 33.5771 43.8632 39.3221V39.3714C43.8632 43.4397 42.1126 46.3985 35.6773 53.0311L27.5899 61.3897V61.7842H44.455V65.7786H21.4258Z" fill="#FFCD00"/>
<path d="M67.4103 65.7786V58.4063H50.0767V54.3626C54.8847 46.2999 60.3338 37.6208 65.3144 30.1992H71.7498V54.4366H76.8044V58.4063H71.7498V65.7786H67.4103ZM54.6135 54.4612H67.4349V34.3168H67.139C63.1447 40.2837 58.4846 47.6314 54.6135 54.1653V54.4612Z" fill="#FFCD00"/>
<rect x="47.3555" y="1.99316" width="2.65772" height="12.6242" rx="1.32886" fill="#FFCD00"/>
<rect x="47.3555" y="81.7251" width="2.65772" height="12.6242" rx="1.32886" fill="#FFCD00"/>
<rect x="15.795" y="46.8423" width="2.65772" height="12.6242" rx="1.32886" transform="rotate(90 15.795 46.8423)" fill="#FFCD00"/>
<rect x="94.5299" y="46.8423" width="2.65772" height="12.6242" rx="1.32886" transform="rotate(90 94.5299 46.8423)" fill="#FFCD00"/>
</svg>
